<?xml version="1.0" encoding="utf-8"?>
<!DOCTYPE svg PUBLIC "-//W3C//DTD SVG 1.1//EN" "http://www.w3.org/Graphics/SVG/1.1/DTD/svg11.dtd">
<?xml-stylesheet type="text/css" href="/css/svg_style.css"?>
<svg version="1.1" xmlns="http://www.w3.org/2000/svg" xmlns:xlink="http://www.w3.org/1999/xlink" x="0px" y="0px"
	 width="260px" height="49.64px" viewBox="0 0 260 49.64" enable-background="new 0 0 260 49.64" xml:space="preserve">
<g>
	<path fill="#3C3C3D" d="M70.547,7.615v8.008h4.212V7.615h3.926v22.021H66.673V7.615H70.547z M70.547,26.335h4.212v-7.359h-4.212
		V26.335z M81.676,7.199h3.952v9.387h3.51v3.406h-3.51v11.205h-3.952V7.199z"/>
	<path fill="#3C3C3D" d="M104.191,18.613c0,4.445-0.441,7.67-1.976,9.516c-0.988,1.248-2.548,1.848-4.395,1.848
		c-1.819,0-3.354-0.6-4.394-1.848c-1.534-1.846-1.977-5.07-1.977-9.516c0-4.42,0.442-7.645,1.977-9.49
		c1.04-1.273,2.574-1.898,4.394-1.898c1.847,0,3.406,0.625,4.395,1.898C103.75,10.968,104.191,14.193,104.191,18.613z
		 M95.376,18.613c0,3.77,0.209,6.24,0.937,7.307c0.338,0.494,0.91,0.754,1.508,0.754c0.624,0,1.17-0.26,1.534-0.754
		c0.729-1.066,0.937-3.537,0.937-7.307c0-3.744-0.208-6.215-0.937-7.281c-0.364-0.492-0.91-0.779-1.534-0.779
		c-0.598,0-1.17,0.287-1.508,0.779C95.585,12.398,95.376,14.869,95.376,18.613z M107.234,7.199h3.951v23.998h-3.951V7.199z"/>
	<path fill="#3C3C3D" d="M120.467,7.615v8.008h4.212V7.615h3.926v22.021h-12.012V7.615H120.467z M120.467,26.335h4.212v-7.359
		h-4.212V26.335z M131.596,7.199h3.951v9.387h3.512v3.406h-3.512v11.205h-3.951V7.199z"/>
	<path fill="#3C3C3D" d="M154.111,18.613c0,4.445-0.441,7.67-1.977,9.516c-0.988,1.248-2.547,1.848-4.395,1.848
		c-1.818,0-3.354-0.6-4.393-1.848c-1.535-1.846-1.977-5.07-1.977-9.516c0-4.42,0.441-7.645,1.977-9.49
		c1.039-1.273,2.574-1.898,4.393-1.898c1.848,0,3.406,0.625,4.395,1.898C153.67,10.968,154.111,14.193,154.111,18.613z
		 M145.297,18.613c0,3.77,0.209,6.24,0.936,7.307c0.338,0.494,0.91,0.754,1.508,0.754c0.625,0,1.17-0.26,1.535-0.754
		c0.729-1.066,0.936-3.537,0.936-7.307c0-3.744-0.207-6.215-0.936-7.281c-0.365-0.492-0.91-0.779-1.535-0.779
		c-0.598,0-1.17,0.287-1.508,0.779C145.506,12.398,145.297,14.869,145.297,18.613z M157.154,7.199h3.951v23.998h-3.951V7.199z"/>
</g>
<g>
	<path fill="#3C3C3D" d="M170.256,27.14V16.099h3.42c2.6,0,3.9,0.906,3.9,2.715c0,0.541-0.143,1.033-0.428,1.479
		s-0.668,0.748-1.146,0.906v0.076c0.658,0.141,1.186,0.432,1.582,0.877c0.395,0.445,0.592,1.027,0.592,1.748
		c0,1.061-0.387,1.865-1.162,2.414c-0.775,0.551-1.797,0.826-3.068,0.826H170.256z M171.996,20.705h1.484
		c1.59,0,2.385-0.555,2.385-1.664c0-0.57-0.189-0.979-0.568-1.223c-0.381-0.246-0.971-0.369-1.771-0.369h-1.529V20.705z
		 M171.996,25.775h1.756c1.809,0,2.715-0.654,2.715-1.965c0-1.189-0.906-1.785-2.715-1.785h-1.756V25.775z"/>
	<path fill="#3C3C3D" d="M186.771,18.89l-3.031,8.744c-0.35,0.971-0.773,1.705-1.273,2.205c-0.502,0.5-1.16,0.75-1.98,0.75
		c-0.391,0-0.736-0.055-1.035-0.164l0.33-1.352c0.27,0.08,0.469,0.121,0.6,0.121c0.801,0,1.375-0.516,1.725-1.545l0.166-0.57
		L179,18.89h1.771l1.529,4.244c0.061,0.18,0.176,0.541,0.346,1.08c0.17,0.541,0.305,0.955,0.404,1.246h0.074l0.646-2.326
		l1.318-4.244H186.771z"/>
	<path fill="#3C3C3D" d="M191.705,27.335c-1.15,0-2.107-0.389-2.873-1.164c-0.764-0.773-1.146-1.822-1.146-3.143
		c0-1.289,0.375-2.336,1.125-3.143c0.75-0.805,1.629-1.207,2.641-1.207c1.068,0,1.896,0.354,2.482,1.059
		c0.584,0.705,0.877,1.656,0.877,2.857c0,0.359-0.025,0.65-0.076,0.869h-5.354c0.068,0.781,0.332,1.395,0.787,1.846
		c0.455,0.449,1.043,0.674,1.762,0.674c0.68,0,1.336-0.203,1.965-0.613l0.602,1.094C193.625,27.044,192.695,27.335,191.705,27.335z
		 M189.365,22.279h3.961c0-0.719-0.158-1.273-0.473-1.664c-0.316-0.391-0.773-0.586-1.373-0.586c-0.541,0-1.008,0.201-1.402,0.602
		C189.684,21.029,189.445,21.58,189.365,22.279z"/>
	<path fill="#3C3C3D" d="M196.895,27.14V16.099h3.42c2.6,0,3.9,0.906,3.9,2.715c0,0.541-0.143,1.033-0.428,1.479
		s-0.668,0.748-1.146,0.906v0.076c0.66,0.141,1.188,0.432,1.582,0.877s0.592,1.027,0.592,1.748c0,1.061-0.387,1.865-1.162,2.414
		c-0.775,0.551-1.797,0.826-3.068,0.826H196.895z M198.635,20.705h1.484c1.59,0,2.387-0.555,2.387-1.664
		c0-0.57-0.191-0.979-0.57-1.223c-0.381-0.246-0.971-0.369-1.771-0.369h-1.529V20.705z M198.635,25.775h1.756
		c1.809,0,2.715-0.654,2.715-1.965c0-1.189-0.906-1.785-2.715-1.785h-1.756V25.775z"/>
	<path fill="#3C3C3D" d="M213.41,18.89l-3.031,8.744c-0.35,0.971-0.773,1.705-1.273,2.205s-1.16,0.75-1.98,0.75
		c-0.391,0-0.734-0.055-1.035-0.164l0.33-1.352c0.27,0.08,0.471,0.121,0.6,0.121c0.801,0,1.375-0.516,1.725-1.545l0.166-0.57
		l-3.27-8.189h1.77l1.529,4.244c0.061,0.18,0.176,0.541,0.346,1.08c0.17,0.541,0.305,0.955,0.404,1.246h0.076l0.645-2.326
		l1.32-4.244H213.41z"/>
	<path fill="#3C3C3D" d="M218.346,27.335c-1.15,0-2.107-0.389-2.873-1.164c-0.766-0.773-1.148-1.822-1.148-3.143
		c0-1.289,0.375-2.336,1.125-3.143c0.75-0.805,1.631-1.207,2.641-1.207c1.07,0,1.898,0.354,2.482,1.059
		c0.586,0.705,0.877,1.656,0.877,2.857c0,0.359-0.023,0.65-0.074,0.869h-5.355c0.07,0.781,0.332,1.395,0.787,1.846
		c0.455,0.449,1.043,0.674,1.764,0.674c0.68,0,1.334-0.203,1.965-0.613l0.6,1.094C220.266,27.044,219.336,27.335,218.346,27.335z
		 M216.006,22.279h3.959c0-0.719-0.158-1.273-0.473-1.664s-0.771-0.586-1.373-0.586c-0.539,0-1.006,0.201-1.402,0.602
		C216.322,21.029,216.084,21.58,216.006,22.279z"/>
</g>
<g>
	<path fill="#3F3F9F" d="M71.296,43.685v1.936c1.18-0.041,2.35-0.156,3.51-0.346l0.12,1.141c-1.97,0.379-4.845,0.58-8.625,0.6
		l-0.195-1.275c1.56,0,2.775-0.016,3.645-0.045v-2.01h-2.655v-6.449h7.005v1.244h-5.46v1.336h5.16v1.215h-5.16v1.41h5.49v1.244
		H71.296z M75.631,36.035h1.56v13.59h-1.56V36.035z"/>
	<path fill="#3F3F9F" d="M86.686,37.191v2.219c0,1.23,0.3,2.393,0.9,3.488c0.6,1.094,1.399,1.887,2.399,2.377l-0.944,1.23
		c-1.45-0.75-2.49-2.08-3.12-3.99c-0.3,0.959-0.73,1.811-1.29,2.551c-0.561,0.74-1.221,1.305-1.98,1.693l-0.944-1.244
		c1.039-0.51,1.872-1.336,2.497-2.475c0.625-1.141,0.938-2.35,0.938-3.631v-2.219H86.686z M94.546,41.435v1.275h-2.115v6.9h-1.545
		V36.066h1.545v5.369H94.546z"/>
	<path fill="#3F3F9F" d="M108.226,37.16v2.236c0,1.279,0.305,2.473,0.915,3.576c0.61,1.105,1.425,1.893,2.445,2.363l-0.915,1.244
		c-0.75-0.369-1.397-0.906-1.942-1.611c-0.546-0.705-0.968-1.523-1.268-2.453c-0.65,2.08-1.735,3.51-3.255,4.289l-0.976-1.229
		c1.04-0.51,1.873-1.344,2.498-2.498c0.624-1.154,0.938-2.383,0.938-3.682V37.16H108.226z M113.011,36.035h1.56v13.59h-1.56V41.75
		h-2.896v-1.26h2.896V36.035z"/>
	<path fill="#3F3F9F" d="M119.941,37.175h1.529v3.449h3.436v-3.449h1.545v9.24h-6.51V37.175z M121.47,41.855v3.314h3.436v-3.314
		H121.47z M128.805,36.05h1.561v13.59h-1.561V36.05z"/>
	<path fill="#3F3F9F" d="M135.121,46.595h12.27v1.275h-12.27V46.595z M146.865,42.679l-0.674,1.275
		c-1.102-0.229-2.098-0.674-2.992-1.334c-0.896-0.66-1.563-1.455-2.004-2.385c-0.439,0.93-1.107,1.725-2.002,2.385
		s-1.893,1.105-2.992,1.334l-0.66-1.275c1.34-0.248,2.482-0.832,3.428-1.746c0.945-0.916,1.418-1.908,1.418-2.979v-1.02h1.635v1.02
		c0,1.08,0.473,2.078,1.416,2.992C144.383,41.863,145.525,42.441,146.865,42.679z"/>
	<path fill="#3C3C3D" d="M151.275,46.759l-0.193-1.273c3.799,0,6.705-0.15,8.715-0.451l0.104,1.125
		C157.811,46.56,154.936,46.759,151.275,46.759z M152.754,37.925c0.695-0.609,1.572-0.916,2.633-0.916
		c1.059,0,1.939,0.307,2.639,0.916c0.701,0.609,1.051,1.391,1.051,2.34s-0.35,1.73-1.051,2.34c-0.699,0.609-1.58,0.916-2.639,0.916
		c-1.061,0-1.938-0.307-2.633-0.916s-1.043-1.391-1.043-2.34S152.059,38.535,152.754,37.925z M155.387,38.33
		c-0.631,0-1.148,0.178-1.553,0.533s-0.607,0.822-0.607,1.402s0.203,1.047,0.607,1.402s0.922,0.533,1.553,0.533
		c0.639,0,1.162-0.178,1.566-0.533c0.406-0.355,0.607-0.822,0.607-1.402s-0.201-1.047-0.607-1.402
		C156.549,38.507,156.025,38.33,155.387,38.33z M160.605,36.05h1.561v13.574h-1.561V36.05z"/>
	<path fill="#3C3C3D" d="M179.281,46.685h5.385v1.26h-12.271v-1.26h5.342v-3.061h-3.977v-6.479h9.48v6.479h-3.959V46.685z
		 M175.275,38.375v4.021h6.449v-4.021H175.275z"/>
	<path fill="#3C3C3D" d="M188.311,42.83h12.256v1.26h-12.256V42.83z M191.355,45.349v2.746h7.92v1.244h-9.465v-3.99H191.355z
		 M199.17,40.265v1.26h-9.344v-4.92h9.24v1.244h-7.711v2.416H199.17z"/>
	<path fill="#3C3C3D" d="M210.525,37.115h6.09c0,1.781-0.518,3.285-1.553,4.516s-2.553,2.16-4.551,2.789l-0.646-1.199
		c1.551-0.48,2.756-1.135,3.615-1.965s1.355-1.795,1.484-2.895h-4.439V37.115z M217.201,44.076v0.523
		c0,0.891,0.404,1.682,1.215,2.371s1.865,1.145,3.164,1.365l-0.615,1.215c-1.039-0.189-1.955-0.531-2.744-1.02
		c-0.789-0.49-1.385-1.096-1.785-1.816c-0.41,0.73-1.016,1.344-1.814,1.838c-0.801,0.496-1.721,0.838-2.76,1.027l-0.6-1.215
		c1.299-0.219,2.355-0.68,3.172-1.379c0.814-0.701,1.223-1.496,1.223-2.387v-0.523H217.201z M219.346,45.156v-4.111h-2.67v-1.273
		h2.67v-3.705h1.545v9.09H219.346z"/>
</g>
<circle fill="#AFAFEB" cx="26.076" cy="25.688" r="22.603"/>
<g class="hand st1">
	<path fill="#FFFFFF" d="M27.048,37.973c1.657,1.658,4.345,1.658,6.002,0l7.156-7.155c1.657-1.658,1.657-4.344,0-6.002l0,0
		c-1.657-1.657-4.345-1.657-6.002,0l-7.156,7.156C25.391,33.629,25.391,36.316,27.048,37.973L27.048,37.973z"/>
	<path fill="#3C3C3D" d="M26.245,38.777c-2.098-2.098-2.098-5.51,0-7.608l7.156-7.155c1.016-1.016,2.367-1.576,3.804-1.576
		s2.788,0.561,3.804,1.576s1.576,2.367,1.576,3.804s-0.56,2.788-1.576,3.804l-7.156,7.156c-1.016,1.016-2.367,1.576-3.804,1.576
		S27.261,39.792,26.245,38.777z M35.007,25.62l-7.156,7.155c-1.211,1.212-1.212,3.184,0,4.396c0.587,0.587,1.368,0.91,2.198,0.91
		s1.611-0.323,2.198-0.91l7.156-7.155c0.587-0.588,0.91-1.368,0.91-2.198s-0.323-1.61-0.91-2.197
		c-0.587-0.588-1.368-0.911-2.198-0.911S35.594,25.032,35.007,25.62z"/>
	<path fill="#FFFFFF" d="M29.038,29.995V7.197c0-1.927-1.562-3.488-3.488-3.488l0,0c-1.926,0-3.488,1.562-3.488,3.488v14.204V4.683
		c0-1.927-1.561-3.487-3.487-3.487l0,0c-1.927,0-3.487,1.561-3.487,3.487v16.718V5.662c0-1.927-1.562-3.488-3.489-3.488l0,0
		c-1.926,0-3.488,1.562-3.488,3.488v15.739v-8.207c0-1.927-1.562-3.488-3.488-3.488l0,0c-1.926,0-3.487,1.562-3.487,3.488v12.151
		v9.034c0,7.752,6.284,14.036,14.036,14.036h3.123c4.845,0,9.117-2.454,11.639-6.188l4.369-5.377"/>
	<path fill="#3C3C3D" d="M15.172,49.551h3.123c5.031,0,9.719-2.483,12.551-6.646l4.337-5.339c0.396-0.486,0.322-1.201-0.165-1.597
		c-0.487-0.396-1.202-0.322-1.598,0.164l-4.369,5.376c-0.021,0.026-0.041,0.054-0.06,0.082c-2.406,3.562-6.405,5.688-10.697,5.688
		h-3.123c-7.113,0-12.9-5.788-12.9-12.901V13.194c0-1.298,1.055-2.354,2.351-2.354s2.352,1.056,2.352,2.354v8.207
		c0,0.628,0.508,1.136,1.136,1.136s1.136-0.508,1.136-1.136V5.662c0-1.298,1.055-2.353,2.352-2.353c1.297,0,2.353,1.055,2.353,2.353
		v15.739c0,0.628,0.508,1.136,1.136,1.136c0.627,0,1.136-0.508,1.136-1.136V4.683c0-1.297,1.055-2.352,2.351-2.352
		c1.297,0,2.352,1.055,2.352,2.352v16.718c0,0.628,0.509,1.136,1.136,1.136c0.627,0,1.136-0.508,1.136-1.136V7.197
		c0-1.298,1.055-2.354,2.352-2.354c1.297,0,2.353,1.056,2.353,2.354v22.798c0,0.628,0.508,1.136,1.136,1.136
		c0.627,0,1.136-0.508,1.136-1.136V7.197c0-2.55-2.074-4.625-4.624-4.625c-0.942,0-1.819,0.284-2.551,0.769
		c-0.576-1.896-2.341-3.28-4.424-3.28c-1.639,0-3.083,0.857-3.903,2.148c-0.818-0.729-1.894-1.171-3.072-1.171
		c-2.55,0-4.624,2.074-4.624,4.624v3.551c-0.69-0.408-1.494-0.644-2.352-0.644C2.074,8.569,0,10.644,0,13.194v21.186
		C0,42.746,6.806,49.551,15.172,49.551z"/>
	<path fill="#FFFFFF" d="M28.847,29.995c0,0-7.242,0.579-11.442,7.677"/>
	<path fill="#3C3C3D" d="M17.404,38.808c0.388,0,0.766-0.199,0.979-0.559c3.855-6.516,10.488-7.117,10.555-7.122
		c0.625-0.051,1.092-0.598,1.042-1.223c-0.05-0.626-0.598-1.091-1.223-1.042c-0.32,0.025-7.88,0.713-12.329,8.23
		c-0.32,0.539-0.141,1.235,0.398,1.556C17.007,38.756,17.207,38.808,17.404,38.808z"/>
</g>
<g class="hand st2">
	<path fill="#FFFFFF" d="M241.018,37.894c-1.143,1.145-2.998,1.145-4.143,0l-4.938-4.939c-1.145-1.144-1.145-2.997,0-4.143l0,0
		c1.143-1.143,2.998-1.143,4.143,0l4.938,4.94C242.162,34.896,242.162,36.75,241.018,37.894L241.018,37.894z"/>
	<path fill="#3C3C3D" d="M238.947,39.537c-0.992,0-1.926-0.388-2.627-1.088l-4.939-4.939c-0.701-0.701-1.086-1.634-1.086-2.625
		c0-0.992,0.385-1.924,1.086-2.625c0.703-0.701,1.635-1.088,2.627-1.088s1.924,0.387,2.625,1.088l4.939,4.938
		c1.447,1.448,1.447,3.803,0,5.251C240.871,39.149,239.938,39.537,238.947,39.537z M234.008,28.738c-0.572,0-1.113,0.225-1.516,0.63
		c-0.406,0.405-0.629,0.943-0.629,1.517c0,0.572,0.223,1.111,0.629,1.518l4.938,4.938c0.404,0.405,0.943,0.628,1.518,0.628
		c0.572,0,1.111-0.223,1.516-0.628c0.838-0.837,0.838-2.197,0-3.034l-4.939-4.938C235.119,28.962,234.58,28.738,234.008,28.738z"/>
	<path fill="#FFFFFF" d="M239.645,32.387V16.652c0-1.329,1.078-2.407,2.408-2.407l0,0c1.328,0,2.406,1.078,2.406,2.407v9.804V14.917
		c0-1.33,1.078-2.407,2.408-2.407l0,0c1.328,0,2.406,1.077,2.406,2.407v11.539V15.592c0-1.33,1.078-2.408,2.408-2.408l0,0
		c1.33,0,2.406,1.078,2.406,2.408v10.863v-5.664c0-1.33,1.078-2.408,2.408-2.408l0,0c1.33,0,2.406,1.078,2.406,2.408v8.387v6.235
		c0,5.351-4.338,9.688-9.688,9.688h-2.156c-3.344,0-6.291-1.694-8.033-4.271l-3.014-3.711"/>
	<path fill="#3C3C3D" d="M249.215,45.885h-2.156c-3.471,0-6.707-1.714-8.662-4.586l-2.994-3.686
		c-0.273-0.336-0.221-0.83,0.113-1.103c0.336-0.273,0.83-0.222,1.104,0.113l3.016,3.711c0.014,0.018,0.027,0.037,0.041,0.057
		c1.66,2.458,4.42,3.926,7.383,3.926h2.156c4.91,0,8.902-3.994,8.902-8.904V20.792c0-0.896-0.727-1.625-1.621-1.625
		s-1.623,0.729-1.623,1.625v5.664c0,0.434-0.352,0.784-0.785,0.784c-0.432,0-0.783-0.351-0.783-0.784V15.592
		c0-0.896-0.729-1.623-1.623-1.623c-0.896,0-1.623,0.728-1.623,1.623v10.863c0,0.434-0.352,0.784-0.785,0.784
		s-0.783-0.351-0.783-0.784V14.917c0-0.895-0.729-1.622-1.623-1.622c-0.896,0-1.623,0.728-1.623,1.622v11.539
		c0,0.434-0.354,0.784-0.785,0.784s-0.783-0.351-0.783-0.784v-9.804c0-0.896-0.729-1.625-1.623-1.625
		c-0.896,0-1.625,0.729-1.625,1.625v15.735c0,0.434-0.35,0.784-0.783,0.784s-0.785-0.351-0.785-0.784V16.652
		c0-1.76,1.434-3.192,3.193-3.192c0.65,0,1.256,0.196,1.76,0.53c0.398-1.309,1.617-2.264,3.055-2.264
		c1.131,0,2.127,0.592,2.693,1.482c0.564-0.502,1.307-0.808,2.121-0.808c1.76,0,3.191,1.432,3.191,3.191v2.45
		c0.477-0.281,1.029-0.443,1.623-0.443c1.758,0,3.191,1.432,3.191,3.192v14.622C259.688,41.188,254.988,45.885,249.215,45.885z"/>
	<path fill="#FFFFFF" d="M239.775,32.387c0,0,5,0.399,7.898,5.298"/>
	<path fill="#3C3C3D" d="M247.674,38.47c-0.268,0-0.527-0.137-0.676-0.386c-2.66-4.497-7.238-4.912-7.285-4.916
		c-0.43-0.034-0.752-0.412-0.717-0.843c0.033-0.433,0.412-0.753,0.842-0.72c0.221,0.018,5.439,0.492,8.51,5.681
		c0.223,0.372,0.098,0.853-0.275,1.073C247.947,38.434,247.811,38.47,247.674,38.47z"/>
</g>
</svg>
