<?xml version="1.0" encoding="utf-8"?>
<!-- Generator: Adobe Illustrator 13.0.0, SVG Export Plug-In . SVG Version: 6.00 Build 14948)  -->
<!DOCTYPE svg PUBLIC "-//W3C//DTD SVG 1.1//EN" "http://www.w3.org/Graphics/SVG/1.1/DTD/svg11.dtd">
<svg version="1.1" id="Layer_1" xmlns="http://www.w3.org/2000/svg" xmlns:xlink="http://www.w3.org/1999/xlink" x="0px" y="0px"
	 width="42.584px" height="49.491px" viewBox="0 0 42.584 49.491" enable-background="new 0 0 42.584 49.491" xml:space="preserve">
<g>
	<path fill="#FFFFFF" d="M27.048,37.913c1.658,1.658,4.346,1.658,6.002,0l7.156-7.155c1.656-1.658,1.656-4.344,0-6.002l0,0
		c-1.658-1.657-4.346-1.657-6.002,0l-7.156,7.156C25.392,33.569,25.392,36.255,27.048,37.913L27.048,37.913z"/>
	<path fill="#3C3C3D" d="M26.245,38.716c-2.098-2.098-2.098-5.51,0-7.608l7.156-7.155c1.016-1.016,2.367-1.576,3.803-1.576
		c1.438,0,2.789,0.561,3.805,1.576s1.576,2.367,1.576,3.804s-0.561,2.788-1.576,3.804l-7.156,7.156
		c-1.016,1.016-2.367,1.576-3.803,1.576C28.612,40.292,27.261,39.732,26.245,38.716z M35.007,25.559l-7.156,7.155
		c-1.211,1.212-1.211,3.184,0,4.396c0.588,0.587,1.369,0.91,2.199,0.91s1.609-0.323,2.197-0.91l7.156-7.155
		c0.586-0.588,0.91-1.368,0.91-2.198s-0.324-1.61-0.91-2.197c-0.588-0.588-1.369-0.911-2.199-0.911S35.595,24.971,35.007,25.559z"/>
	<path fill="#FFFFFF" d="M29.038,29.934V7.136c0-1.927-1.563-3.488-3.488-3.488l0,0c-1.926,0-3.488,1.562-3.488,3.488V21.34V4.623
		c0-1.927-1.561-3.487-3.487-3.487l0,0c-1.927,0-3.487,1.561-3.487,3.487V21.34V5.601c0-1.927-1.562-3.488-3.489-3.488l0,0
		c-1.926,0-3.488,1.562-3.488,3.488V21.34v-8.207c0-1.927-1.562-3.488-3.488-3.488l0,0c-1.926,0-3.487,1.562-3.487,3.488v12.151
		v9.034c0,7.752,6.284,14.036,14.036,14.036h3.123c4.845,0,9.116-2.454,11.64-6.188l4.367-5.377"/>
	<path fill="#3C3C3D" d="M15.172,49.491h3.123c5.03,0,9.72-2.483,12.552-6.646l4.338-5.339c0.395-0.486,0.32-1.201-0.166-1.597
		c-0.486-0.396-1.201-0.322-1.598,0.164l-4.369,5.376c-0.02,0.026-0.041,0.054-0.059,0.082c-2.406,3.562-6.406,5.688-10.698,5.688
		h-3.123c-7.113,0-12.9-5.788-12.9-12.901V13.133c0-1.298,1.055-2.354,2.351-2.354s2.352,1.056,2.352,2.354v8.207
		c0,0.628,0.508,1.136,1.136,1.136s1.136-0.508,1.136-1.136V5.601c0-1.298,1.055-2.353,2.352-2.353c1.297,0,2.353,1.055,2.353,2.353
		V21.34c0,0.628,0.508,1.136,1.136,1.136c0.627,0,1.136-0.508,1.136-1.136V4.623c0-1.297,1.055-2.352,2.351-2.352
		c1.297,0,2.352,1.055,2.352,2.352V21.34c0,0.628,0.508,1.136,1.135,1.136c0.627,0,1.137-0.508,1.137-1.136V7.136
		c0-1.298,1.055-2.354,2.352-2.354s2.352,1.056,2.352,2.354v22.798c0,0.628,0.51,1.136,1.137,1.136s1.135-0.508,1.135-1.136V7.136
		c0-2.55-2.074-4.625-4.623-4.625c-0.941,0-1.82,0.284-2.551,0.769C22.423,1.383,20.657,0,18.574,0
		c-1.639,0-3.083,0.857-3.903,2.148c-0.818-0.729-1.894-1.171-3.072-1.171c-2.55,0-4.624,2.074-4.624,4.624v3.551
		c-0.69-0.408-1.494-0.644-2.352-0.644C2.074,8.508,0,10.583,0,13.133v21.186C0,42.685,6.806,49.491,15.172,49.491z"/>
	<path fill="#FFFFFF" d="M28.847,29.934c0,0-7.242,0.579-11.442,7.677"/>
	<path fill="#3C3C3D" d="M17.404,38.748c0.388,0,0.766-0.199,0.979-0.559c3.855-6.516,10.488-7.117,10.554-7.122
		c0.627-0.051,1.092-0.598,1.043-1.223c-0.051-0.626-0.598-1.091-1.223-1.042c-0.32,0.025-7.881,0.713-12.33,8.23
		c-0.32,0.539-0.141,1.235,0.398,1.556C17.007,38.696,17.207,38.748,17.404,38.748z"/>
</g>
</svg>
