<?xml version="1.0" encoding="utf-8"?>
<!-- Generator: Adobe Illustrator 13.0.0, SVG Export Plug-In . SVG Version: 6.00 Build 14948)  -->
<!DOCTYPE svg PUBLIC "-//W3C//DTD SVG 1.1//EN" "http://www.w3.org/Graphics/SVG/1.1/DTD/svg11.dtd">
<svg version="1.1" id="Layer_1" xmlns="http://www.w3.org/2000/svg" xmlns:xlink="http://www.w3.org/1999/xlink" x="0px" y="0px"
	 width="275.206px" height="46.555px" viewBox="0 0 275.206 46.555" enable-background="new 0 0 275.206 46.555"
	 xml:space="preserve">
<g>
	<path fill="#3C3C3D" d="M67.074,4.529v8.008h4.212V4.529h3.926v22.021H63.2V4.529H67.074z M67.074,23.25h4.212v-7.359h-4.212V23.25
		z M78.203,4.113h3.952V13.5h3.51v3.406h-3.51v11.205h-3.952V4.113z"/>
	<path fill="#3C3C3D" d="M100.717,15.527c0,4.445-0.441,7.67-1.976,9.516c-0.988,1.248-2.548,1.848-4.395,1.848
		c-1.819,0-3.354-0.6-4.394-1.848c-1.534-1.846-1.977-5.07-1.977-9.516c0-4.42,0.442-7.645,1.977-9.49
		c1.04-1.273,2.574-1.898,4.394-1.898c1.847,0,3.406,0.625,4.395,1.898C100.276,7.883,100.717,11.107,100.717,15.527z
		 M91.903,15.527c0,3.77,0.209,6.24,0.937,7.307c0.338,0.494,0.91,0.754,1.508,0.754c0.624,0,1.17-0.26,1.534-0.754
		c0.729-1.066,0.937-3.537,0.937-7.307c0-3.744-0.208-6.215-0.937-7.281c-0.364-0.492-0.91-0.779-1.534-0.779
		c-0.598,0-1.17,0.287-1.508,0.779C92.112,9.313,91.903,11.783,91.903,15.527z M103.76,4.113h3.951v23.998h-3.951V4.113z"/>
	<path fill="#3C3C3D" d="M116.994,4.529v8.008h4.212V4.529h3.926v22.021H113.12V4.529H116.994z M116.994,23.25h4.212v-7.359h-4.212
		V23.25z M128.122,4.113h3.952V13.5h3.511v3.406h-3.511v11.205h-3.952V4.113z"/>
	<path fill="#3C3C3D" d="M150.636,15.527c0,4.445-0.441,7.67-1.975,9.516c-0.988,1.248-2.549,1.848-4.395,1.848
		c-1.82,0-3.354-0.6-4.395-1.848c-1.533-1.846-1.976-5.07-1.976-9.516c0-4.42,0.443-7.645,1.976-9.49
		c1.041-1.273,2.574-1.898,4.395-1.898c1.846,0,3.406,0.625,4.395,1.898C150.195,7.883,150.636,11.107,150.636,15.527z
		 M141.822,15.527c0,3.77,0.209,6.24,0.938,7.307c0.338,0.494,0.91,0.754,1.508,0.754c0.623,0,1.17-0.26,1.533-0.754
		c0.729-1.066,0.938-3.537,0.938-7.307c0-3.744-0.209-6.215-0.938-7.281c-0.363-0.492-0.91-0.779-1.533-0.779
		c-0.598,0-1.17,0.287-1.508,0.779C142.031,9.313,141.822,11.783,141.822,15.527z M153.679,4.113h3.951v23.998h-3.951V4.113z"/>
</g>
<g>
	<path fill="#3C3C3D" d="M166.781,24.055V13.014h3.42c2.602,0,3.9,0.906,3.9,2.715c0,0.541-0.143,1.033-0.428,1.479
		s-0.666,0.748-1.146,0.906v0.076c0.66,0.141,1.188,0.432,1.582,0.877s0.592,1.027,0.592,1.748c0,1.061-0.387,1.865-1.162,2.414
		c-0.775,0.551-1.797,0.826-3.066,0.826H166.781z M168.521,17.619h1.486c1.59,0,2.385-0.555,2.385-1.664
		c0-0.57-0.191-0.979-0.57-1.223c-0.381-0.246-0.971-0.369-1.77-0.369h-1.531V17.619z M168.521,22.689h1.756
		c1.809,0,2.715-0.654,2.715-1.965c0-1.189-0.906-1.785-2.715-1.785h-1.756V22.689z"/>
	<path fill="#3C3C3D" d="M183.296,15.805l-3.029,8.744c-0.352,0.971-0.775,1.705-1.275,2.205s-1.16,0.75-1.98,0.75
		c-0.391,0-0.734-0.055-1.035-0.164l0.33-1.352c0.27,0.08,0.471,0.121,0.6,0.121c0.801,0,1.375-0.516,1.725-1.545l0.166-0.57
		l-3.27-8.189h1.77l1.529,4.244c0.061,0.18,0.176,0.541,0.346,1.08c0.17,0.541,0.305,0.955,0.404,1.246h0.076l0.645-2.326
		l1.32-4.244H183.296z"/>
	<path fill="#3C3C3D" d="M188.232,24.25c-1.15,0-2.107-0.389-2.873-1.164c-0.766-0.773-1.148-1.822-1.148-3.143
		c0-1.289,0.375-2.336,1.125-3.143c0.75-0.805,1.631-1.207,2.641-1.207c1.07,0,1.898,0.354,2.482,1.059
		c0.586,0.705,0.877,1.656,0.877,2.857c0,0.359-0.023,0.65-0.074,0.869h-5.355c0.07,0.781,0.332,1.395,0.787,1.846
		c0.455,0.449,1.043,0.674,1.764,0.674c0.68,0,1.334-0.203,1.965-0.613l0.6,1.094C190.152,23.959,189.222,24.25,188.232,24.25z
		 M185.892,19.193h3.959c0-0.719-0.158-1.273-0.473-1.664s-0.771-0.586-1.373-0.586c-0.539,0-1.006,0.201-1.402,0.602
		C186.208,17.943,185.97,18.494,185.892,19.193z"/>
	<path fill="#3C3C3D" d="M193.421,24.055V13.014h3.42c2.6,0,3.9,0.906,3.9,2.715c0,0.541-0.143,1.033-0.428,1.479
		s-0.668,0.748-1.148,0.906v0.076c0.66,0.141,1.188,0.432,1.582,0.877c0.396,0.445,0.594,1.027,0.594,1.748
		c0,1.061-0.389,1.865-1.162,2.414c-0.775,0.551-1.799,0.826-3.068,0.826H193.421z M195.162,17.619h1.484
		c1.59,0,2.385-0.555,2.385-1.664c0-0.57-0.189-0.979-0.57-1.223c-0.379-0.246-0.969-0.369-1.77-0.369h-1.529V17.619z
		 M195.162,22.689h1.754c1.811,0,2.715-0.654,2.715-1.965c0-1.189-0.904-1.785-2.715-1.785h-1.754V22.689z"/>
	<path fill="#3C3C3D" d="M209.935,15.805l-3.029,8.744c-0.35,0.971-0.775,1.705-1.275,2.205s-1.16,0.75-1.98,0.75
		c-0.389,0-0.734-0.055-1.035-0.164l0.33-1.352c0.271,0.08,0.471,0.121,0.602,0.121c0.799,0,1.375-0.516,1.725-1.545l0.164-0.57
		l-3.27-8.189h1.77l1.531,4.244c0.059,0.18,0.174,0.541,0.344,1.08c0.17,0.541,0.305,0.955,0.406,1.246h0.074l0.645-2.326
		l1.32-4.244H209.935z"/>
	<path fill="#3C3C3D" d="M214.871,24.25c-1.15,0-2.107-0.389-2.873-1.164c-0.764-0.773-1.146-1.822-1.146-3.143
		c0-1.289,0.375-2.336,1.125-3.143c0.75-0.805,1.629-1.207,2.641-1.207c1.068,0,1.896,0.354,2.482,1.059
		c0.584,0.705,0.877,1.656,0.877,2.857c0,0.359-0.025,0.65-0.076,0.869h-5.354c0.068,0.781,0.332,1.395,0.787,1.846
		c0.455,0.449,1.043,0.674,1.762,0.674c0.68,0,1.336-0.203,1.965-0.613l0.602,1.094C216.791,23.959,215.861,24.25,214.871,24.25z
		 M212.531,19.193h3.961c0-0.719-0.158-1.273-0.473-1.664c-0.316-0.391-0.773-0.586-1.373-0.586c-0.541,0-1.008,0.201-1.402,0.602
		C212.849,17.943,212.611,18.494,212.531,19.193z"/>
</g>
<g>
	<path fill="#3F3F9F" d="M67.823,40.6v1.936c1.18-0.041,2.35-0.156,3.51-0.346l0.12,1.141c-1.97,0.379-4.845,0.58-8.625,0.6
		l-0.195-1.275c1.56,0,2.775-0.016,3.645-0.045V40.6h-2.655V34.15h7.005v1.244h-5.46v1.336h5.16v1.215h-5.16v1.41h5.49V40.6H67.823z
		 M72.158,32.949h1.56v13.59h-1.56V32.949z"/>
	<path fill="#3F3F9F" d="M83.212,34.105v2.219c0,1.23,0.3,2.393,0.9,3.488c0.6,1.094,1.399,1.887,2.399,2.377l-0.944,1.23
		c-1.45-0.75-2.49-2.08-3.12-3.99c-0.3,0.959-0.73,1.811-1.29,2.551c-0.561,0.74-1.221,1.305-1.98,1.693l-0.944-1.244
		c1.039-0.51,1.872-1.336,2.497-2.475c0.625-1.141,0.938-2.35,0.938-3.631v-2.219H83.212z M91.073,38.35v1.275h-2.115v6.9h-1.545
		V32.98h1.545v5.369H91.073z"/>
	<path fill="#3F3F9F" d="M104.752,34.074v2.236c0,1.279,0.305,2.473,0.915,3.576c0.61,1.105,1.425,1.893,2.445,2.363l-0.915,1.244
		c-0.75-0.369-1.397-0.906-1.942-1.611c-0.546-0.705-0.968-1.523-1.268-2.453c-0.65,2.08-1.735,3.51-3.255,4.289l-0.976-1.229
		c1.04-0.51,1.873-1.344,2.498-2.498c0.624-1.154,0.938-2.383,0.938-3.682v-2.236H104.752z M109.538,32.949h1.56v13.59h-1.56v-7.875
		h-2.896v-1.26h2.896V32.949z"/>
	<path fill="#3F3F9F" d="M116.467,34.09h1.529v3.449h3.436V34.09h1.545v9.24h-6.51V34.09z M117.997,38.77v3.314h3.436V38.77H117.997
		z M125.332,32.965h1.561v13.59h-1.561V32.965z"/>
	<path fill="#3F3F9F" d="M131.647,43.51h12.271v1.275h-12.271V43.51z M143.392,39.594l-0.676,1.275
		c-1.1-0.229-2.098-0.674-2.992-1.334s-1.563-1.455-2.001-2.385c-0.441,0.93-1.108,1.725-2.002,2.385
		c-0.896,0.66-1.893,1.105-2.993,1.334l-0.66-1.275c1.341-0.248,2.483-0.832,3.428-1.746c0.945-0.916,1.418-1.908,1.418-2.979v-1.02
		h1.634v1.02c0,1.08,0.473,2.078,1.418,2.992C140.91,38.777,142.052,39.355,143.392,39.594z"/>
	<path fill="#3C3C3D" d="M147.802,43.674l-0.195-1.273c3.801,0,6.705-0.15,8.715-0.451l0.105,1.125
		C154.337,43.475,151.462,43.674,147.802,43.674z M149.279,34.84c0.695-0.609,1.574-0.916,2.633-0.916
		c1.061,0,1.941,0.307,2.641,0.916s1.051,1.391,1.051,2.34s-0.352,1.73-1.051,2.34s-1.58,0.916-2.641,0.916
		c-1.059,0-1.938-0.307-2.633-0.916c-0.693-0.609-1.041-1.391-1.041-2.34S148.585,35.449,149.279,34.84z M151.912,35.244
		c-0.629,0-1.146,0.178-1.553,0.533c-0.404,0.355-0.607,0.822-0.607,1.402s0.203,1.047,0.607,1.402
		c0.406,0.355,0.924,0.533,1.553,0.533c0.641,0,1.164-0.178,1.568-0.533s0.607-0.822,0.607-1.402s-0.203-1.047-0.607-1.402
		S152.552,35.244,151.912,35.244z M157.132,32.965h1.561v13.574h-1.561V32.965z"/>
	<path fill="#3C3C3D" d="M175.806,43.6h5.385v1.26h-12.27V43.6h5.34v-3.061h-3.975v-6.479h9.48v6.479h-3.961V43.6z M171.8,35.289
		v4.021h6.451v-4.021H171.8z"/>
	<path fill="#3C3C3D" d="M184.837,39.744h12.254v1.26h-12.254V39.744z M187.882,42.264v2.746h7.92v1.244h-9.465v-3.99H187.882z
		 M195.697,37.18v1.26h-9.346v-4.92h9.24v1.244h-7.709v2.416H195.697z"/>
	<path fill="#3C3C3D" d="M207.052,34.029h6.09c0,1.781-0.518,3.285-1.553,4.516s-2.553,2.16-4.553,2.789l-0.645-1.199
		c1.549-0.48,2.754-1.135,3.615-1.965c0.859-0.83,1.354-1.795,1.484-2.895h-4.439V34.029z M213.726,40.99v0.523
		c0,0.891,0.406,1.682,1.215,2.371c0.811,0.689,1.865,1.145,3.166,1.365l-0.615,1.215c-1.041-0.189-1.955-0.531-2.744-1.02
		c-0.791-0.49-1.387-1.096-1.785-1.816c-0.41,0.73-1.016,1.344-1.816,1.838c-0.799,0.496-1.719,0.838-2.76,1.027l-0.6-1.215
		c1.301-0.219,2.357-0.68,3.172-1.379c0.816-0.701,1.223-1.496,1.223-2.387V40.99H213.726z M215.873,42.07v-4.111h-2.672v-1.273
		h2.672V32.98h1.545v9.09H215.873z"/>
</g>
<circle fill="#AFAFEB" cx="22.603" cy="22.603" r="22.603"/>
<circle fill="#F7B579" cx="252.602" cy="22.603" r="22.603"/>
</svg>
